<svg width="158" height="52" viewBox="0 0 158 52" fill="none" xmlns="http://www.w3.org/2000/svg">
<path d="M17.4508 25.5398L26.426 37.739C26.699 38.1108 27.1358 38.3292 27.596 38.3214L35.7964 38.1888C35.7964 38.1888 35.0164 44.72 29.1222 45.4844C24.0678 46.1396 18.8808 42.562 18.8808 42.562C18.8808 42.562 10.4516 31.2988 17.4534 25.5398H17.4508Z" fill="url(#paint0_linear_129_1125)"/>
<path d="M18.8786 42.5594C18.8786 42.5594 6.2114 36.933 8.892 21.6216C8.892 21.6216 11.505 4.59422 31.1454 6.60142C31.1454 6.60142 35.9372 9.20662 34.5384 14.1752H26.4186C26.1092 14.1752 25.818 14.3234 25.6334 14.5704L18.2572 24.531C17.8958 25.0198 17.5084 25.493 17.108 25.9532C15.86 27.378 12.6542 32.7912 18.8812 42.562L18.8786 42.5594Z" fill="url(#paint1_linear_129_1125)"/>
<path d="M31.143 6.60138C31.143 6.60138 35.3966 9.06358 34.4892 14.105L26.437 24.8508C26.0392 25.3812 26.0366 26.1066 26.4292 26.6396L34.926 38.2044L35.7476 38.1914C35.7476 38.1914 35.0664 44.6212 29.2112 45.474C29.2112 45.474 37.5754 45.9056 43.2408 38.2798C43.5554 37.856 43.5502 37.271 43.233 36.8498L35.537 26.6552C35.1288 26.117 35.134 25.3708 35.5448 24.8352L43.2356 14.8226C43.571 14.3858 43.5658 13.7748 43.22 13.3458C41.8316 11.6246 37.8692 7.50618 31.1456 6.60398L31.143 6.60138Z" fill="url(#paint2_linear_129_1125)"/>
<path d="M58.1822 32.0545C56.3668 32.0545 54.853 31.481 53.6524 30.3339C52.446 29.1869 51.8486 27.7738 51.8486 26.0946C51.8486 24.4154 52.4518 23.0023 53.6524 21.8553C54.8588 20.7082 56.3668 20.1347 58.1822 20.1347C59.9976 20.1347 60.7922 20.519 61.8884 21.2817C62.9846 22.0445 63.7038 23.0378 64.046 24.2617H61.3722C61.1344 23.7 60.7168 23.2506 60.1194 22.9136C59.522 22.5766 58.8782 22.4111 58.188 22.4111C57.0512 22.4111 56.129 22.7658 55.4098 23.4694C54.6964 24.173 54.3368 25.054 54.3368 26.1005C54.3368 27.147 54.6964 28.028 55.4098 28.7316C56.1232 29.4352 57.0512 29.79 58.188 29.79C59.3248 29.79 59.5278 29.6244 60.1194 29.2874C60.7168 28.9504 61.1344 28.501 61.3722 27.9393H64.046C63.7038 29.1632 62.9846 30.1566 61.8884 30.9193C60.7922 31.682 59.5568 32.0663 58.1822 32.0663V32.0545Z" fill="white"/>
<path d="M75.7853 30.3103C74.5673 31.4751 73.0883 32.0545 71.3657 32.0545C69.6431 32.0545 68.1641 31.4751 66.9461 30.3103C65.7281 29.1455 65.1133 27.7383 65.1133 26.0946C65.1133 24.4509 65.7223 23.0437 66.9461 21.8789C68.1641 20.7141 69.6373 20.1347 71.3657 20.1347C73.0941 20.1347 74.5673 20.7201 75.7853 21.8789C77.0033 23.0437 77.6181 24.4509 77.6181 26.0946C77.6181 27.7383 77.0091 29.1455 75.7853 30.3103ZM68.7035 28.7021C69.4343 29.4234 70.3217 29.7841 71.3715 29.7841C72.4213 29.7841 73.3029 29.4234 74.0395 28.7021C74.7703 27.9807 75.1357 27.1116 75.1357 26.0946C75.1357 25.0776 74.7703 24.2085 74.0395 23.4871C73.3087 22.7658 72.4213 22.4051 71.3715 22.4051C70.3217 22.4051 69.4401 22.7658 68.7035 23.4871C67.9727 24.2085 67.6073 25.0776 67.6073 26.0946C67.6073 27.1116 67.9727 27.9807 68.7035 28.7021Z" fill="white"/>
<path d="M79.5957 20.3239H81.8461L85.7785 25.4738L89.7109 20.3239H91.9613V31.8594H89.4905V24.3504L85.7785 29.2105L82.0665 24.3504V31.8594H79.5957V20.3239Z" fill="white"/>
<path d="M94.6523 31.8594V20.3239H102.181V22.5648H97.1231V24.9357H101.16V27.1766H97.1231V29.6126H102.181V31.8535H94.6523V31.8594Z" fill="white"/>
<path d="M104.327 31.8594V20.3239H106.798V29.6185H111.977V31.8594H104.327Z" fill="white"/>
<path d="M117.371 32.0545C115.997 32.0545 114.889 31.6761 114.048 30.9252C113.207 30.1743 112.766 29.2933 112.72 28.2823H115.191C115.283 28.7907 115.527 29.1869 115.921 29.4589C116.322 29.7367 116.803 29.8727 117.371 29.8727C117.94 29.8727 118.299 29.7663 118.613 29.5535C118.932 29.3406 119.088 29.0568 119.088 28.702C119.088 28.0635 118.549 27.5964 117.47 27.3067L116.194 26.9519C115.208 26.6799 114.437 26.2601 113.88 25.6866C113.323 25.1131 113.039 24.3977 113.027 23.5404C113.027 22.4879 113.398 21.6601 114.135 21.0452C114.872 20.4362 115.858 20.1288 117.081 20.1288C118.305 20.1288 119.326 20.4835 120.097 21.1931C120.869 21.9026 121.281 22.7185 121.321 23.6409H118.868C118.74 23.1856 118.514 22.8486 118.189 22.6357C117.859 22.417 117.493 22.3105 117.081 22.3105C116.67 22.3105 116.258 22.4051 115.968 22.5943C115.678 22.7835 115.527 23.0496 115.515 23.3807C115.504 23.7296 115.626 24.0074 115.875 24.2262C116.124 24.445 116.513 24.6224 117.035 24.7643L118.45 25.1368C120.538 25.6866 121.582 26.8514 121.582 28.6311C121.582 30.4108 121.194 30.4463 120.416 31.0907C119.639 31.7352 118.624 32.0604 117.377 32.0604L117.371 32.0545Z" fill="white"/>
<path d="M133.547 30.3103C132.329 31.4751 130.85 32.0545 129.127 32.0545C127.405 32.0545 125.926 31.4751 124.708 30.3103C123.49 29.1455 122.875 27.7383 122.875 26.0946C122.875 24.4509 123.484 23.0437 124.708 21.8789C125.926 20.7141 127.399 20.1347 129.127 20.1347C130.856 20.1347 132.329 20.7201 133.547 21.8789C134.765 23.0437 135.38 24.4509 135.38 26.0946C135.38 27.7383 134.771 29.1455 133.547 30.3103ZM126.459 28.7021C127.19 29.4234 128.078 29.7841 129.127 29.7841C130.177 29.7841 131.059 29.4234 131.795 28.7021C132.526 27.9807 132.892 27.1116 132.892 26.0946C132.892 25.0776 132.526 24.2085 131.795 23.4871C131.065 22.7658 130.171 22.4051 129.127 22.4051C128.083 22.4051 127.196 22.7658 126.459 23.4871C125.729 24.2085 125.363 25.0776 125.363 26.0946C125.363 27.1116 125.729 27.9807 126.459 28.7021Z" fill="white"/>
<path d="M148.151 31.8594H146.023L139.822 24.3327V31.8594H137.352V20.3239H139.48L145.68 27.8507V20.3239H148.151V31.8594Z" fill="white"/>
<defs>
<linearGradient id="paint0_linear_129_1125" x1="13.1608" y1="35.5524" x2="43.4118" y2="35.5524" gradientUnits="userSpaceOnUse">
<stop stop-color="#2A1740"/>
<stop offset="0.1" stop-color="#351D51"/>
<stop offset="0.4" stop-color="#3985B6"/>
<stop offset="0.6" stop-color="#3CC5F3"/>
<stop offset="0.7" stop-color="#38A4D4"/>
<stop offset="0.8" stop-color="#337EAF"/>
<stop offset="0.9" stop-color="#2D497C"/>
<stop offset="1" stop-color="#271046"/>
</linearGradient>
<linearGradient id="paint1_linear_129_1125" x1="8.6632" y1="24.4972" x2="34.9362" y2="24.4972" gradientUnits="userSpaceOnUse">
<stop stop-color="#351D51"/>
<stop offset="0.1" stop-color="#36396C"/>
<stop offset="0.3" stop-color="#3982B2"/>
<stop offset="0.5" stop-color="#3CC5F3"/>
<stop offset="1" stop-color="#271046"/>
</linearGradient>
<linearGradient id="paint2_linear_129_1125" x1="24.2738" y1="26.0364" x2="42.3438" y2="26.0364" gradientUnits="userSpaceOnUse">
<stop stop-color="white"/>
<stop offset="0.2" stop-color="#ECECEC"/>
<stop offset="0.6" stop-color="#BBBBBC"/>
<stop offset="0.9" stop-color="#909091"/>
</linearGradient>
</defs>
</svg>
