<svg width="16" height="16" viewBox="0 0 16 16" fill="none" xmlns="http://www.w3.org/2000/svg">
<path d="M6 6.66667C6 6.75507 6.03512 6.83986 6.09763 6.90237C6.16014 6.96488 6.24493 7 6.33333 7C6.42174 7 6.50652 6.96488 6.56904 6.90237C6.63155 6.83986 6.66667 6.75507 6.66667 6.66667V6C6.66667 5.91159 6.63155 5.82681 6.56904 5.7643C6.50652 5.70179 6.42174 5.66667 6.33333 5.66667C6.24493 5.66667 6.16014 5.70179 6.09763 5.7643C6.03512 5.82681 6 5.91159 6 6V6.66667ZM6 6.66667C6 7.55072 6.35119 8.39857 6.97631 9.02369C7.60143 9.64881 8.44928 10 9.33333 10M9.33333 10H10C10.0884 10 10.1732 9.96488 10.2357 9.90237C10.2982 9.83986 10.3333 9.75507 10.3333 9.66667C10.3333 9.57826 10.2982 9.49348 10.2357 9.43096C10.1732 9.36845 10.0884 9.33333 10 9.33333H9.33333C9.24493 9.33333 9.16014 9.36845 9.09763 9.43096C9.03512 9.49348 9 9.57826 9 9.66667C9 9.75507 9.03512 9.83986 9.09763 9.90237C9.16014 9.96488 9.24493 10 9.33333 10ZM2 14L3.1 11.4666C2.25844 10.272 1.88178 8.81134 2.0407 7.35872C2.19961 5.9061 2.88319 4.56141 3.96314 3.57699C5.04309 2.59258 6.44517 2.03612 7.90625 2.01205C9.36734 1.98797 10.787 2.49793 11.8988 3.44623C13.0106 4.39452 13.7381 5.71596 13.9448 7.16256C14.1515 8.60915 13.8231 10.0815 13.0214 11.3032C12.2197 12.5249 10.9996 13.412 9.59026 13.7981C8.1809 14.1841 6.67908 14.0426 5.36667 13.4L2 14Z" stroke="#1D212A" stroke-linecap="round" stroke-linejoin="round"/>
</svg>
