<svg width="28" height="28" viewBox="0 0 28 28" fill="none" xmlns="http://www.w3.org/2000/svg">
<path d="M18.667 3.5V8.16667M9.33366 3.5V8.16667M4.66699 12.8333H23.3337M4.66699 8.16667C4.66699 7.54783 4.91282 6.95434 5.35041 6.51675C5.78799 6.07917 6.38149 5.83333 7.00033 5.83333H21.0003C21.6192 5.83333 22.2127 6.07917 22.6502 6.51675C23.0878 6.95434 23.3337 7.54783 23.3337 8.16667V22.1667C23.3337 22.7855 23.0878 23.379 22.6502 23.8166C22.2127 24.2542 21.6192 24.5 21.0003 24.5H7.00033C6.38149 24.5 5.78799 24.2542 5.35041 23.8166C4.91282 23.379 4.66699 22.7855 4.66699 22.1667V8.16667ZM9.33366 17.5H11.667V19.8333H9.33366V17.5Z" stroke="#1577D5" stroke-width="2" stroke-linecap="round" stroke-linejoin="round"/>
</svg>
