<svg width="28" height="28" viewBox="0 0 28 28" fill="none" xmlns="http://www.w3.org/2000/svg">
<path d="M16.8989 6.09782C16.4132 6.10132 15.9311 6.12494 15.4219 6.26144C14.867 6.41165 14.3405 6.65197 13.8635 6.97282C13.1932 6.57907 12.544 6.25532 11.9219 6.17919C11.1492 6.08382 10.4317 6.13544 9.59787 6.15294C8.60912 6.17307 7.96425 6.67794 6.91775 7.08219C5.87213 7.48469 4.5255 7.87494 2.625 7.87494H1.75V16.2968L2.24262 16.5427L3.85525 17.3363L9.59787 23.7343L9.625 23.7614C10.2812 24.4107 11.1668 24.5717 11.949 24.5271C12.7321 24.4833 13.4671 24.2541 14.0543 23.8988C15.3466 23.1192 18.8668 20.6718 18.8668 20.6718L18.949 20.6167L19.0041 20.5624C19.4206 20.1486 19.6297 19.6437 19.7697 19.1134L23.1324 17.4177L25.648 16.5707L26.25 16.3782V7.87494H25.375C23.9041 7.88591 22.4454 7.60702 21.0822 7.05419C20.0357 6.64557 19.4005 6.14594 18.4013 6.12494C17.8675 6.11444 17.3836 6.09432 16.8989 6.09782ZM16.9251 7.84782C17.3189 7.84432 17.7739 7.86532 18.3479 7.87494C18.4397 7.87844 19.2806 8.23719 20.4531 8.69569C21.4445 9.08507 22.8218 9.43069 24.5 9.54269V15.1208L22.4761 15.8051H22.4219L22.3668 15.8313L19.7155 17.1718C19.5748 16.7658 19.3513 16.3933 19.0592 16.0781L19.0041 15.9958L15.2854 11.4301L14.7385 10.7458L14.0543 11.2927L11.7031 13.2072C10.9139 13.7541 10.2742 13.5966 9.625 13.2894C9.43687 13.2002 9.44738 13.1731 9.29688 13.0707L13.2895 9.76144L13.3438 9.70719C14.5294 8.53119 15.2583 8.12432 15.8865 7.95719C16.2015 7.87144 16.5323 7.85132 16.9251 7.84782ZM10.829 7.87494C11.1209 7.8631 11.4134 7.87217 11.704 7.90207C11.9333 7.92919 12.1931 8.12432 12.4154 8.20307C12.3261 8.28532 12.2614 8.33257 12.1686 8.42182L12.1144 8.47694L7.329 12.4407L6.5905 13.0427L7.24675 13.7261C7.24675 13.7261 7.87938 14.4103 8.86025 14.8749C9.84113 15.3396 11.3557 15.6029 12.7155 14.6562L12.7706 14.6011L14.4655 13.2072L17.6925 17.1718L17.7196 17.2269L17.7467 17.2532C18.3242 17.8246 18.3111 18.7232 17.7467 19.3051C17.7397 19.3112 17.7537 19.3252 17.7467 19.3313C17.7397 19.3357 17.6242 19.4039 17.6102 19.4144L16.4614 17.8552L15.0395 18.8947L16.1612 20.3979C15.7062 20.7059 15.5015 20.8669 15.0124 21.1916L13.8373 19.6052L12.4145 20.6447L13.5363 22.1479C13.4365 22.2092 13.2317 22.3466 13.153 22.3947C12.8765 22.5618 12.3427 22.7499 11.8676 22.7771C11.4205 22.8016 11.0784 22.6983 10.9113 22.5583L10.8841 22.5312L5.03212 16.0509L4.92275 15.9136L3.5 15.2031V9.54269C5.17125 9.43332 6.559 9.10169 7.54688 8.72282C8.71587 8.27482 9.55063 7.90557 9.65213 7.90207L10.829 7.87494Z" fill="#1577D5"/>
</svg>
