<svg width="168" height="40" viewBox="0 0 168 40" fill="none" xmlns="http://www.w3.org/2000/svg">
<g clip-path="url(#clip0_124_117)">
<mask id="mask0_124_117" style="mask-type:luminance" maskUnits="userSpaceOnUse" x="0" y="0" width="168" height="40">
<path d="M0 0H168V40H0V0Z" fill="white"/>
</mask>
<g mask="url(#mask0_124_117)">
<path d="M80.4224 0C79.4854 4.127 79.1154 5.756 73.5254 6.265C79.1154 5.755 78.7454 7.385 77.8084 11.511C78.7404 7.409 79.1154 5.756 84.6184 5.254C79.1154 5.756 79.4914 4.102 80.4224 0Z" fill="white"/>
<path d="M82.8379 10.9479C81.2659 11.9399 79.3579 12.1759 77.5109 12.3939C75.4889 12.6319 73.4869 12.8789 71.5079 13.1339C72.0319 10.8269 72.2759 9.89194 75.4089 9.60694C72.2429 9.89494 72.4589 8.94394 72.9949 6.58394C72.4549 8.95794 72.2429 9.89494 69.0269 10.1879C72.2099 9.89794 72.0349 10.8129 71.5079 13.1339C65.8127 13.865 60.1293 14.6917 54.4619 15.6139C60.7569 14.8469 69.5079 14.0989 77.0169 13.4579C79.4549 13.2489 82.7259 12.9919 83.4199 15.3379C83.6399 16.0799 83.6439 16.9939 83.5109 18.0869H80.1879L77.4449 30.9899H84.7449L87.4879 18.0859H83.7839C84.3509 16.3609 85.0589 15.0159 86.2189 13.9789C87.6969 12.6589 89.7859 12.3819 91.7619 12.2389C131.931 9.34094 163.557 11.4589 164.077 17.3669C164.226 19.0499 161.837 20.8699 157.42 22.7099V22.7169L157.405 22.7229V22.7099C159.042 22.0179 162.336 20.3019 162.538 18.0859H155.545L152.781 24.4689C152.779 24.4809 152.77 24.4919 152.756 24.5039H152.738L152.746 24.4689C152.733 23.7578 152.714 23.0468 152.689 22.3359C152.676 21.6302 152.662 20.9246 152.646 20.2189C152.633 19.5078 152.615 18.7968 152.59 18.0859H143.214L140.471 30.9899H146.892L148.402 23.8839L148.406 23.8669H148.423L148.431 23.8679C148.435 23.8699 148.438 23.8729 148.438 23.8779V23.8819L148.437 23.8839C148.479 25.0659 148.516 26.2469 148.546 27.4289C148.576 28.6099 148.611 29.7969 148.651 30.9899H153.136L156.382 23.8329L156.385 23.8159H156.403C156.41 23.8159 156.414 23.8179 156.416 23.8219L156.417 23.8239V23.8339L154.895 30.9909H161.668L164.089 19.6009C166.552 18.1019 167.812 16.6539 167.665 15.3089C166.963 8.85594 134.133 7.04694 92.4639 10.8329L92.2259 10.8549L92.2159 10.8559C90.2529 11.0379 87.8959 11.2559 86.8959 9.59994C85.9369 8.00994 86.5489 5.31294 87.4289 1.43994C86.3499 6.18994 85.6759 9.15594 82.8379 10.9479Z" fill="white"/>
<path fill-rule="evenodd" clip-rule="evenodd" d="M55.2645 18.328C54.0115 17.823 52.3405 17.571 50.2545 17.571C49.2565 17.571 48.3285 17.634 47.4695 17.76C46.6215 17.886 45.8375 18.07 45.1185 18.31C44.3985 18.552 43.7455 18.838 43.1585 19.17C42.6023 19.4799 42.0816 19.8494 41.6055 20.272C41.1554 20.6623 40.7496 21.101 40.3955 21.58C40.0635 22.039 39.7855 22.52 39.5605 23.025C39.35 23.5185 39.1879 24.0313 39.0765 24.556C38.9428 25.1662 38.8871 25.7909 38.9105 26.415C38.9385 27 39.0445 27.55 39.2275 28.066C39.4255 28.571 39.7025 29.03 40.0605 29.443C40.4305 29.856 40.8825 30.211 41.4175 30.51C42.0057 30.815 42.6318 31.0403 43.2795 31.18C43.9965 31.341 44.7995 31.422 45.6915 31.422C46.1015 31.422 46.4575 31.404 46.7575 31.37C47.0675 31.347 47.3875 31.307 47.7155 31.25C48.0465 30.573 48.3795 29.89 48.7135 29.202C49.1552 28.3149 49.5912 27.4248 50.0215 26.532C50.1105 26.352 50.1985 26.17 50.2865 25.989L50.7345 25.073L49.4765 30.991H56.9355L58.1935 25.073H50.7345L58.7065 23.317C58.7505 22.227 58.5005 21.253 57.9565 20.392C57.4145 19.521 56.5165 18.832 55.2645 18.328ZM50.7345 25.073C50.5425 25.313 50.2675 25.503 49.9105 25.64C49.5555 25.767 49.0785 25.83 48.4805 25.83C48.0935 25.83 47.7675 25.79 47.5035 25.71C47.2395 25.629 47.0335 25.52 46.8865 25.382C46.7514 25.2616 46.6509 25.1073 46.5955 24.935C46.5497 24.7604 46.5463 24.5773 46.5855 24.401C46.6385 24.149 46.7535 23.914 46.9285 23.696C47.1185 23.466 47.3875 23.277 47.7355 23.128C48.0955 22.979 48.5515 22.905 49.1025 22.905C49.6885 22.905 50.1385 22.996 50.4515 23.18C50.7635 23.363 50.9445 23.616 50.9935 23.937C51.0435 24.258 50.9565 24.637 50.7345 25.073Z" fill="white"/>
<path d="M71.3056 17.605C70.8983 17.5816 70.4905 17.5703 70.0826 17.571C69.0036 17.571 67.9956 17.651 67.0586 17.811C66.1868 17.9468 65.3313 18.172 64.5056 18.483C63.7296 18.769 63.0276 19.119 62.4006 19.533C61.802 19.9219 61.2544 20.3841 60.7706 20.909C60.3128 21.4201 59.9207 21.9865 59.6036 22.595C59.2684 23.2638 59.0291 23.9764 58.8926 24.712C67.2406 24.542 69.2456 22.507 71.3056 17.605Z" fill="white"/>
<path d="M58.8927 24.712C58.8087 25.1541 58.7652 25.603 58.7627 26.053C58.7727 26.558 58.8467 27.04 58.9837 27.498C59.1327 27.958 59.3447 28.393 59.6207 28.806C59.9107 29.208 60.2717 29.575 60.7057 29.907C61.1507 30.24 61.6817 30.527 62.2997 30.767C62.9197 30.997 63.6257 31.175 64.4197 31.301C64.9067 31.385 65.4297 31.443 65.9887 31.476C67.6857 26.576 67.2267 24.586 58.8927 24.712ZM66.0497 31.479C66.3927 31.498 66.7497 31.508 67.1197 31.508C68.5157 31.508 69.7677 31.381 70.8767 31.129C71.9957 30.889 72.9817 30.549 73.8367 30.114C74.6947 29.666 75.4257 29.15 76.0307 28.565C76.6104 28.0049 77.1029 27.3611 77.4917 26.655C77.8797 25.9377 78.1562 25.1655 78.3117 24.365C70.0967 24.535 68.0997 26.597 66.0497 31.479Z" fill="white"/>
<path d="M78.31 24.366C70.122 24.489 69.682 22.474 71.367 17.609C72.937 17.707 74.24 17.992 75.274 18.465C76.578 19.062 77.477 19.882 77.97 20.925C78.445 21.929 78.558 23.077 78.31 24.366Z" fill="white"/>
<path fill-rule="evenodd" clip-rule="evenodd" d="M116.071 23.24L123.195 22.922C123.544 22.107 123.618 21.373 123.417 20.719C123.216 20.066 122.773 19.503 122.087 19.033C121.413 18.563 120.528 18.202 119.432 17.949C118.349 17.697 117.085 17.571 115.643 17.571C114.623 17.571 113.63 17.634 112.665 17.76C111.758 17.8766 110.861 18.0604 109.98 18.31C109.155 18.552 108.41 18.855 107.746 19.223C107.095 19.578 106.561 19.997 106.142 20.479C105.725 20.949 105.455 21.477 105.33 22.061C105.213 22.612 105.248 23.111 105.434 23.558C105.623 23.994 106.018 24.373 106.618 24.694C107.218 25.015 108.073 25.267 109.183 25.451C109.918 25.565 110.789 25.641 111.796 25.679L104.513 26.157C104.231 27.097 104.217 27.906 104.472 28.582C104.739 29.259 105.236 29.816 105.964 30.252C106.695 30.676 107.625 30.992 108.753 31.198C109.882 31.404 111.162 31.508 112.593 31.508C113.883 31.508 115.105 31.41 116.261 31.215C117.426 31.032 118.469 30.756 119.392 30.389C120.328 30.011 121.089 29.546 121.676 28.996C122.276 28.433 122.653 27.791 122.806 27.068C122.948 26.403 122.917 25.83 122.715 25.348C122.515 24.855 122.096 24.453 121.458 24.143C120.823 23.823 119.929 23.587 118.776 23.438C118.009 23.338 117.107 23.274 116.071 23.24ZM115.87 23.233C115.383 23.22 114.896 23.2137 114.408 23.214H113.969C113.652 23.214 113.398 23.197 113.205 23.163C113.025 23.128 112.897 23.071 112.82 22.991C112.783 22.9428 112.757 22.8865 112.746 22.8266C112.734 22.7667 112.736 22.7049 112.752 22.646C112.781 22.524 112.842 22.4117 112.927 22.32C113.031 22.216 113.155 22.13 113.299 22.061C113.466 21.9782 113.645 21.9203 113.828 21.889C114.025 21.843 114.241 21.821 114.476 21.821C114.851 21.821 115.174 21.872 115.446 21.975C115.731 22.067 115.921 22.222 116.015 22.44C116.111 22.643 116.062 22.908 115.87 23.233ZM112.114 25.69C111.961 26.02 111.928 26.296 112.017 26.518C112.121 26.748 112.319 26.919 112.611 27.034C112.904 27.149 113.243 27.206 113.63 27.206C113.865 27.206 114.079 27.189 114.274 27.154C114.481 27.12 114.668 27.068 114.835 27C114.987 26.941 115.125 26.853 115.242 26.741C115.343 26.636 115.414 26.5053 115.445 26.363C115.504 26.088 115.395 25.91 115.119 25.83C114.855 25.75 114.447 25.71 113.896 25.71H113.456C112.986 25.71 112.539 25.703 112.114 25.69Z" fill="white"/>
<path d="M132.58 18.0871H125.28L123.55 26.2251C123.402 26.9251 123.425 27.5621 123.619 28.1351C123.821 28.7027 124.16 29.2113 124.607 29.6151C125.12 30.0517 125.698 30.4059 126.319 30.6651C127.033 30.9615 127.778 31.1749 128.54 31.3011C129.355 31.4391 130.191 31.5081 131.047 31.5081C132.126 31.5081 133.199 31.3981 134.265 31.1811C135.298 30.978 136.301 30.6485 137.253 30.2001C138.169 29.7531 138.937 29.2021 139.557 28.5481C140.178 27.9052 140.605 27.1 140.789 26.2251L142.519 18.0871H135.219L133.774 24.8831C133.704 25.2161 133.515 25.4681 133.209 25.6401C132.903 25.8121 132.579 25.8981 132.239 25.8981C132.075 25.8981 131.916 25.8751 131.761 25.8301C131.625 25.7869 131.496 25.7228 131.379 25.6401C131.281 25.5477 131.204 25.4365 131.15 25.3131C131.106 25.1678 131.102 25.0133 131.139 24.8661L132.58 18.0871Z" fill="white"/>
<path fill-rule="evenodd" clip-rule="evenodd" d="M99.3282 18.087C100.418 18.087 101.337 18.236 102.082 18.534C102.842 18.821 103.432 19.217 103.853 19.722C104.287 20.215 104.573 20.777 104.708 21.408C104.844 22.038 104.84 22.692 104.696 23.369C104.537 24.104 104.245 24.8038 103.835 25.434C103.409 26.0975 102.868 26.68 102.238 27.154C101.591 27.659 100.831 28.061 99.9582 28.359C99.0882 28.646 98.1202 28.789 97.0532 28.789H93.2712L93.2502 28.806H93.2322L93.2292 28.823L92.7682 30.991H85.4502L88.1932 18.087H99.3282ZM95.6832 25.055C96.0352 25.055 96.3402 24.998 96.5992 24.883C96.8722 24.757 97.0872 24.603 97.2432 24.419C97.4022 24.224 97.5022 24.029 97.5432 23.834C97.5889 23.6439 97.5695 23.4439 97.4882 23.266C97.3997 23.0719 97.2472 22.9141 97.0562 22.819C96.8462 22.704 96.5592 22.647 96.1962 22.647H94.5762C94.5652 22.647 94.5522 22.652 94.5382 22.664L94.5342 22.681L94.0342 25.038C94.0442 25.038 94.0502 25.044 94.0472 25.055H95.6832Z" fill="white"/>
<path fill-rule="evenodd" clip-rule="evenodd" d="M11.7834 25.933L11.7904 25.898L13.4504 18.087H6.15039L3.80039 29.145C1.19839 30.69 -0.139607 32.181 0.010393 33.566C0.768393 40.526 38.9144 42.083 85.2104 37.042C93.6063 36.1324 101.98 35.0254 110.323 33.722C106.133 34.097 101.669 34.476 97.0934 34.865H97.0884L97.0804 34.866H97.0684L97.0564 34.868C93.0364 35.209 88.9314 35.558 84.8494 35.918C40.5354 39.82 4.15839 37.845 3.60039 31.505C3.45239 29.832 5.81339 28.023 10.1824 26.193C7.06939 27.563 5.74039 29.355 5.36739 30.991H17.6034L18.6784 25.933H11.7834ZM9.96439 26.261L9.75439 26.345C10.0094 26.245 10.2684 26.145 10.5334 26.044L10.6584 25.993C10.4263 26.0805 10.195 26.1698 9.96439 26.261Z" fill="white"/>
<path d="M31.7568 17.605C31.3495 17.5816 30.9417 17.5703 30.5338 17.571C29.4538 17.571 28.4468 17.651 27.5098 17.811C26.5868 17.961 25.7358 18.184 24.9568 18.483C24.1808 18.769 23.4788 19.119 22.8518 19.533C22.2532 19.9219 21.7056 20.3841 21.2218 20.909C20.764 21.4201 20.3719 21.9865 20.0548 22.595C19.7193 23.2637 19.4796 23.9764 19.3428 24.712C27.6928 24.542 29.6968 22.507 31.7568 17.605Z" fill="white"/>
<path d="M19.3429 24.712C19.2592 25.1541 19.2161 25.603 19.2139 26.053C19.2239 26.558 19.2979 27.04 19.4339 27.498C19.5839 27.958 19.7959 28.393 20.0709 28.806C20.3768 29.224 20.7423 29.595 21.1559 29.907C21.6019 30.24 22.1329 30.527 22.7499 30.767C23.3699 30.997 24.0769 31.175 24.8699 31.301C25.3579 31.385 25.8799 31.443 26.4399 31.476C28.1369 26.576 27.6779 24.586 19.3429 24.712ZM26.4999 31.479C26.8439 31.498 27.1999 31.508 27.5709 31.508C28.9659 31.508 30.2189 31.381 31.3279 31.129C32.4459 30.889 33.4329 30.549 34.2879 30.114C35.1449 29.666 35.8759 29.15 36.4819 28.565C37.0612 28.0048 37.5533 27.361 37.9419 26.655C38.3299 25.9377 38.6064 25.1655 38.7619 24.365C30.5479 24.535 28.5499 26.597 26.4999 31.479Z" fill="white"/>
<path d="M38.7611 24.366C30.5721 24.489 30.1321 22.474 31.8171 17.609C33.3881 17.707 34.6911 17.992 35.7251 18.465C37.0291 19.062 37.9281 19.882 38.4211 20.925C38.8951 21.929 39.0091 23.077 38.7611 24.366ZM164.628 30.991C164.787 30.9976 164.946 30.9719 165.094 30.9156C165.243 30.8593 165.379 30.7735 165.494 30.6634C165.609 30.5533 165.7 30.4211 165.762 30.2748C165.825 30.1285 165.857 29.9711 165.857 29.812C165.857 29.653 165.825 29.4956 165.762 29.3492C165.7 29.2029 165.609 29.0708 165.494 28.9606C165.379 28.8505 165.243 28.7647 165.094 28.7084C164.946 28.6521 164.787 28.6265 164.628 28.633C164.324 28.6455 164.036 28.7752 163.825 28.995C163.614 29.2147 163.497 29.5075 163.497 29.812C163.497 30.1166 163.614 30.4093 163.825 30.629C164.036 30.8488 164.324 30.9785 164.628 30.991Z" fill="white"/>
</g>
</g>
<defs>
<clipPath id="clip0_124_117">
<rect width="168" height="40" fill="white"/>
</clipPath>
</defs>
</svg>
