<svg width="105" height="40" viewBox="0 0 105 40" fill="none" xmlns="http://www.w3.org/2000/svg">
<mask id="mask0_129_989" style="mask-type:luminance" maskUnits="userSpaceOnUse" x="0" y="0" width="105" height="40">
<path d="M0 0H105V40H0V0Z" fill="white"/>
</mask>
<g mask="url(#mask0_129_989)">
<path d="M48.1367 35.238H50.8707V24.924H48.1367V35.238ZM48.1367 23.315H50.8707V20.862H48.1367V23.315ZM52.6327 38.616H55.3677V34.072H55.4077C55.9907 34.957 56.9357 35.54 58.3837 35.54C61.0377 35.54 62.8467 33.429 62.8467 30.091C62.8467 26.874 61.0967 24.642 58.3637 24.642C56.9557 24.642 55.9907 25.306 55.3277 26.211H55.2677V24.924H52.6327V38.616ZM57.8007 33.268C56.1717 33.268 55.3067 32.041 55.3067 30.171C55.3067 28.321 55.9907 26.854 57.6997 26.854C59.3887 26.854 60.0727 28.221 60.0727 30.171C60.0727 32.121 59.1877 33.268 57.8007 33.268ZM68.3007 35.54C70.8747 35.54 72.6437 34.293 72.6437 32.222C72.6437 29.809 70.7337 29.327 69.0047 28.965C67.5367 28.663 66.1697 28.583 66.1697 27.698C66.1697 26.954 66.8737 26.552 67.9397 26.552C69.1057 26.552 69.8097 26.954 69.9297 28.06H72.4027C72.2027 25.99 70.6937 24.642 67.9797 24.642C65.6267 24.642 63.7777 25.708 63.7777 27.94C63.7777 30.192 65.5877 30.694 67.4367 31.056C68.8437 31.337 70.1507 31.438 70.1507 32.423C70.1507 33.147 69.4677 33.609 68.2607 33.609C67.0347 33.609 66.1907 33.087 66.0087 31.9H63.4757C63.6367 34.092 65.3047 35.54 68.3007 35.54ZM83.0257 35.238V24.924H80.2917V30.875C80.2917 32.242 79.5077 33.207 78.2207 33.207C77.0547 33.207 76.5107 32.544 76.5107 31.337V24.924H73.7977V31.8C73.7977 34.052 75.0837 35.52 77.3767 35.52C78.8237 35.52 79.6277 34.977 80.3317 34.032H80.3917V35.238H83.0257ZM84.7947 35.238H87.5287V29.247C87.5287 27.879 88.2727 26.995 89.3787 26.995C90.3837 26.995 90.9667 27.598 90.9667 28.764V35.238H93.7017V29.247C93.7017 27.879 94.4057 26.995 95.5517 26.995C96.5567 26.995 97.1397 27.598 97.1397 28.764V35.238H99.8737V28.302C99.8737 26.05 98.6477 24.642 96.4757 24.642C95.1697 24.642 94.0837 25.326 93.3797 26.452H93.3397C92.8367 25.366 91.7917 24.642 90.4847 24.642C89.0567 24.642 88.0517 25.366 87.4887 26.312H87.4287V24.924H84.7947V35.238ZM48.1767 17.572H50.9117V3.19604H48.1767V17.572ZM57.5977 17.874C60.7947 17.874 62.9857 15.501 62.9857 12.424C62.9857 9.34904 60.7947 6.97604 57.5977 6.97604C54.4007 6.97604 52.2087 9.34904 52.2087 12.425C52.2087 15.501 54.4007 17.874 57.5977 17.874ZM57.5977 15.783C55.9077 15.783 54.9837 14.435 54.9837 12.425C54.9837 10.415 55.9087 9.04704 57.5977 9.04704C59.2667 9.04704 60.2117 10.414 60.2117 12.425C60.2117 14.435 59.2667 15.783 57.5977 15.783ZM68.8007 21.09C70.3287 21.09 71.6557 20.729 72.5207 19.924C73.2847 19.221 73.7467 18.235 73.7467 16.788V7.25804H71.1127V8.34305H71.0727C70.4497 7.47905 69.5047 6.97604 68.2177 6.97604C65.6037 6.97604 63.7537 8.94604 63.7537 12.023C63.7537 15.139 66.0057 16.949 68.2977 16.949C69.6047 16.949 70.3887 16.426 70.9927 15.742H71.0527V16.868C71.0527 18.276 70.3087 19.02 68.7607 19.02C67.4937 19.02 66.9107 18.517 66.6897 17.874H63.9757C64.2567 19.884 65.9857 21.09 68.8007 21.09ZM68.7607 14.757C67.3527 14.757 66.4277 13.732 66.4277 11.983C66.4277 10.253 67.3527 9.16805 68.7407 9.16805C70.3887 9.16805 71.1937 10.455 71.1937 11.963C71.1937 13.491 70.4897 14.757 68.7607 14.757ZM80.3937 17.874C83.5897 17.874 85.7817 15.501 85.7817 12.424C85.7817 9.34904 83.5897 6.97604 80.3937 6.97604C77.1967 6.97604 75.0047 9.34904 75.0047 12.425C75.0047 15.501 77.1967 17.874 80.3937 17.874ZM80.3937 15.783C78.7037 15.783 77.7797 14.435 77.7797 12.425C77.7797 10.415 78.7047 9.04704 80.3937 9.04704C82.0617 9.04704 83.0067 10.414 83.0067 12.425C83.0067 14.435 82.0617 15.783 80.3937 15.783ZM88.1787 13.631H100.001V11.28H88.1787V13.632V13.631ZM100.868 23.172C100.868 22.709 101.243 22.334 101.706 22.334H103.381C103.493 22.3302 103.605 22.3489 103.71 22.3893C103.815 22.4296 103.911 22.4907 103.992 22.5688C104.073 22.647 104.137 22.7406 104.181 22.8442C104.225 22.9477 104.248 23.0591 104.248 23.1715C104.248 23.284 104.225 23.3954 104.181 23.4989C104.137 23.6025 104.073 23.6961 103.992 23.7742C103.911 23.8524 103.815 23.9135 103.71 23.9538C103.605 23.9941 103.493 24.0129 103.381 24.009H101.706C101.484 24.009 101.271 23.9209 101.114 23.764C100.956 23.607 100.868 23.3941 100.868 23.172Z" fill="white"/>
<path fill-rule="evenodd" clip-rule="evenodd" d="M20.5215 0C31.5675 0 40.5215 8.954 40.5215 20C40.5215 31.046 31.5675 40 20.5215 40C9.47648 40 0.521484 31.046 0.521484 20C0.521484 8.954 9.47648 0 20.5215 0ZM19.8005 1.497C17.5185 1.817 15.3455 3.651 13.6595 6.717C13.1695 7.607 12.7295 8.589 12.3445 9.65C14.6375 9.074 17.1565 8.734 19.8005 8.682V1.497ZM10.6535 10.131C11.0994 8.70802 11.6821 7.33159 12.3935 6.021C13.2285 4.501 14.2205 3.188 15.3385 2.18C12.3403 3.05529 9.61094 4.67176 7.40232 6.88021C5.1937 9.08865 3.57701 11.8179 2.70148 14.816C3.70948 13.698 5.02248 12.706 6.54248 11.87C7.85308 11.1586 9.22951 10.5759 10.6525 10.13L10.6535 10.131ZM10.1735 11.821C9.59748 14.114 9.25749 16.633 9.20448 19.277H2.01848C2.33948 16.995 4.17348 14.823 7.23848 13.137C8.12848 12.647 9.11148 12.206 10.1725 11.821H10.1735ZM10.6505 19.277C10.7105 16.392 11.1265 13.683 11.8135 11.29C14.2065 10.603 16.9155 10.188 19.8005 10.128V13.251C19.2655 14.6166 18.4539 15.8568 17.4167 16.8938C16.3795 17.9308 15.1392 18.7422 13.7735 19.277H10.6505ZM9.20448 20.723H2.01848C2.33948 23.005 4.17348 25.177 7.23848 26.863C8.12848 27.353 9.11148 27.794 10.1725 28.179C9.59648 25.886 9.25648 23.367 9.20348 20.723H9.20448ZM11.8135 28.71C11.1255 26.317 10.7105 23.608 10.6515 20.723H13.7735C15.1392 21.2578 16.3795 22.0692 17.4167 23.1062C18.4539 24.1432 19.2655 25.3834 19.8005 26.749V29.872C16.9155 29.812 14.2065 29.397 11.8135 28.71ZM10.6535 29.87C9.2305 29.4241 7.85408 28.8414 6.54348 28.13C5.02348 27.294 3.71048 26.302 2.70348 25.184C3.57865 28.1816 5.19473 30.9106 7.40261 33.119C9.61049 35.3274 12.339 36.9441 15.3365 37.82C14.2185 36.812 13.2265 35.5 12.3905 33.98C11.6795 32.6694 11.0971 31.2929 10.6515 29.87H10.6535ZM19.8005 38.503C17.5185 38.183 15.3455 36.349 13.6595 33.283C13.1695 32.393 12.7295 31.41 12.3445 30.35C14.6375 30.926 17.1565 31.266 19.8005 31.318V38.503ZM25.7075 37.82C26.8255 36.812 27.8175 35.5 28.6535 33.98C29.3645 32.6694 29.9469 31.2929 30.3925 29.87C31.8155 29.4241 33.1919 28.8414 34.5025 28.13C36.0225 27.294 37.3355 26.302 38.3425 25.184C37.4671 28.1819 35.8507 30.911 33.6425 33.1194C31.4343 35.3278 28.7053 36.9444 25.7075 37.82ZM28.7015 30.35C28.3394 31.3601 27.8997 32.3407 27.3865 33.283C25.7005 36.349 23.5275 38.183 21.2465 38.503V31.318C23.8895 31.266 26.4085 30.926 28.7015 30.35ZM30.8725 28.179C31.8826 27.8169 32.8632 27.3772 33.8055 26.864C36.8715 25.177 38.7055 23.004 39.0255 20.723H31.8405C31.7875 23.367 31.4485 25.886 30.8725 28.179ZM30.3955 20.723C30.3355 23.608 29.9205 26.317 29.2325 28.71C26.8395 29.397 24.1305 29.812 21.2455 29.872V26.752C21.7802 25.3856 22.5917 24.1445 23.6291 23.1068C24.6664 22.0691 25.9072 21.2571 27.2735 20.722L30.3955 20.723ZM31.8415 19.277H39.0265C38.7055 16.995 36.8715 14.823 33.8065 13.137C32.9165 12.647 31.9335 12.206 30.8725 11.821C31.4485 14.114 31.7885 16.633 31.8415 19.277ZM29.2305 11.29C29.9185 13.683 30.3335 16.392 30.3935 19.277H27.2715C25.9053 18.742 24.6646 17.9302 23.6272 16.8927C22.5899 15.8551 21.7783 14.6142 21.2435 13.248V10.128C24.1295 10.188 26.8375 10.603 29.2305 11.29ZM30.3905 10.13C31.8135 10.5759 33.1899 11.1586 34.5005 11.87C36.0205 12.706 37.3335 13.698 38.3405 14.816C37.4653 11.8184 35.8492 9.08942 33.6414 6.88101C31.4335 4.67261 28.7049 3.05587 25.7075 2.18C26.8255 3.188 27.8175 4.5 28.6535 6.02C29.3645 7.33065 29.9469 8.70708 30.3925 10.13H30.3905ZM21.2435 1.497C23.5255 1.817 25.6985 3.651 27.3845 6.717C27.8745 7.607 28.3145 8.589 28.6995 9.65C26.4065 9.074 23.8875 8.734 21.2435 8.682V1.497Z" fill="white"/>
</g>
</svg>
