<svg width="170" height="39" viewBox="0 0 170 39" fill="none" xmlns="http://www.w3.org/2000/svg">
<mask id="mask0_129_1013" style="mask-type:luminance" maskUnits="userSpaceOnUse" x="0" y="0" width="170" height="39">
<path d="M0 0H170V39H0V0Z" fill="white"/>
</mask>
<g mask="url(#mask0_129_1013)">
<path fill-rule="evenodd" clip-rule="evenodd" d="M14.4886 27.3C13.2078 27.3 11.9793 26.7864 11.0736 25.8721C10.1679 24.9579 9.65909 23.7179 9.65909 22.425V0H0V22.425C0 30.5019 6.48705 37.05 14.4886 37.05H25.1136V27.3H14.4886ZM43.4659 9.75C42.3243 9.75 41.1939 9.97697 40.1392 10.418C39.0845 10.8589 38.1261 11.5053 37.3189 12.3201C36.5117 13.135 35.8713 14.1023 35.4345 15.167C34.9976 16.2316 34.7727 17.3727 34.7727 18.525C34.7727 19.6773 34.9976 20.8184 35.4345 21.883C35.8713 22.9477 36.5117 23.915 37.3189 24.7299C38.1261 25.5447 39.0845 26.1911 40.1392 26.632C41.1939 27.073 42.3243 27.3 43.4659 27.3C45.7715 27.3 47.9826 26.3755 49.6129 24.7299C51.2432 23.0842 52.1591 20.8523 52.1591 18.525C52.1591 16.1977 51.2432 13.9658 49.6129 12.3201C47.9826 10.6745 45.7715 9.75 43.4659 9.75ZM25.1136 18.525C25.1136 8.29432 33.3306 0 43.4659 0C53.6012 0 61.8182 8.29432 61.8182 18.525C61.8182 28.7557 53.6012 37.05 43.4659 37.05C33.3306 37.05 25.1136 28.7557 25.1136 18.525ZM147.784 9.75C146.642 9.75 145.512 9.97697 144.457 10.418C143.403 10.8589 142.444 11.5053 141.637 12.3201C140.83 13.135 140.19 14.1023 139.753 15.167C139.316 16.2316 139.091 17.3727 139.091 18.525C139.091 19.6773 139.316 20.8184 139.753 21.883C140.19 22.9477 140.83 23.915 141.637 24.7299C142.444 25.5447 143.403 26.1911 144.457 26.632C145.512 27.073 146.642 27.3 147.784 27.3C150.09 27.3 152.301 26.3755 153.931 24.7299C155.561 23.0842 156.477 20.8523 156.477 18.525C156.477 16.1977 155.561 13.9658 153.931 12.3201C152.301 10.6745 150.09 9.75 147.784 9.75ZM129.432 18.525C129.432 8.29432 137.649 0 147.784 0C157.919 0 166.136 8.29432 166.136 18.525C166.136 28.7557 157.919 37.05 147.784 37.05C137.649 37.05 129.432 28.7557 129.432 18.525ZM82.1023 0C71.967 0 63.75 8.29432 63.75 18.525C63.75 28.7557 71.967 37.05 82.1023 37.05H109.148C111.05 37.05 112.884 36.7575 114.609 36.2154L119.773 39L125.344 28.4661C126.759 25.7845 127.5 22.7928 127.5 19.7545V18.525C127.5 8.29432 119.283 0 109.148 0H82.1023ZM117.841 18.525C117.841 16.1977 116.925 13.9658 115.295 12.3201C113.664 10.6745 111.453 9.75 109.148 9.75H82.1023C79.7967 9.75 77.5856 10.6745 75.9553 12.3201C74.325 13.9658 73.4091 16.1977 73.4091 18.525C73.4091 20.8523 74.325 23.0842 75.9553 24.7299C77.5856 26.3755 79.7967 27.3 82.1023 27.3H109.148C111.442 27.3008 113.643 26.386 115.272 24.7549C116.9 23.1238 117.824 20.9089 117.841 18.5933V18.525Z" fill="white"/>
<path d="M170 2.43754C170.01 2.7633 169.954 3.08762 169.837 3.39132C169.72 3.69501 169.543 3.97191 169.318 4.20563C169.093 4.43936 168.824 4.62517 168.527 4.75207C168.23 4.87897 167.91 4.94439 167.587 4.94446C167.264 4.94452 166.945 4.87923 166.647 4.75245C166.35 4.62567 166.081 4.43997 165.856 4.20633C165.63 3.9727 165.454 3.69587 165.337 3.39223C165.22 3.08858 165.164 2.76428 165.173 2.43851C165.19 1.80423 165.452 1.2019 165.903 0.759523C166.354 0.317143 166.958 0.069585 167.586 0.0694581C168.215 0.0693311 168.819 0.316645 169.269 0.758843C169.72 1.20104 169.983 1.80327 170 2.43754Z" fill="white"/>
</g>
</svg>
